<svg width="60" height="60" viewBox="0 0 60 60" fill="none" xmlns="http://www.w3.org/2000/svg">
<rect width="60" height="60" rx="30" fill="url(#paint0_linear_15_39)"/>
<path d="M13.5056 40V19.52H33.6656C37.8043 19.52 40.855 19.9253 42.8176 20.736C44.7803 21.5467 45.7616 22.9547 45.7616 24.96C45.7616 26.24 45.335 27.2213 44.4816 27.904C43.6496 28.5867 42.4443 29.0667 40.8656 29.344C39.3083 29.6 37.431 29.76 35.2336 29.824L35.4896 29.568C37.0896 29.568 38.5723 29.6107 39.9376 29.696C41.303 29.7813 42.4976 29.9733 43.5216 30.272C44.5456 30.5707 45.3456 31.0293 45.9216 31.648C46.4976 32.2667 46.7856 33.12 46.7856 34.208C46.7856 35.5307 46.3163 36.6187 45.3776 37.472C44.439 38.3253 43.1056 38.9653 41.3776 39.392C39.6496 39.7973 37.6123 40 35.2656 40H13.5056ZM21.5056 33.984H35.2656C36.3963 33.984 37.207 33.8773 37.6976 33.664C38.2096 33.4507 38.4656 33.1093 38.4656 32.64C38.4656 32.32 38.3483 32.064 38.1136 31.872C37.9003 31.68 37.559 31.5413 37.0896 31.456C36.6203 31.3493 36.0123 31.296 35.2656 31.296H21.5056V33.984ZM21.5056 28.224H33.9216C35.0523 28.224 35.863 28.1173 36.3536 27.904C36.8656 27.6907 37.1216 27.3493 37.1216 26.88C37.1216 26.3893 36.8656 26.048 36.3536 25.856C35.863 25.6427 35.0523 25.536 33.9216 25.536H21.5056V28.224Z" fill="#E6DEDC"/>
<defs>
<linearGradient id="paint0_linear_15_39" x1="30" y1="1.47549e-06" x2="89.6929" y2="43.4657" gradientUnits="userSpaceOnUse">
<stop stop-color="#044945"/>
<stop offset="1" stop-color="#541DBB"/>
</linearGradient>
</defs>
</svg>
