<svg width="51" height="51" viewBox="0 0 51 51" fill="none" xmlns="http://www.w3.org/2000/svg">
<rect x="0.265625" width="50.0938" height="50.0938" rx="25.0469" fill="#EEEEEE"/>
<g clip-path="url(#clip0_29_147)">
<path d="M21.2418 38.1928C23.6034 38.1928 25.5201 36.2761 25.5201 33.9145V29.6363H21.2418C18.8803 29.6363 16.9636 31.553 16.9636 33.9145C16.9636 36.2761 18.8803 38.1928 21.2418 38.1928Z" fill="#0ACF83"/>
<path d="M16.9636 25.3581C16.9636 22.9965 18.8803 21.0799 21.2418 21.0799H25.5201V29.6363H21.2418C18.8803 29.6363 16.9636 27.7197 16.9636 25.3581Z" fill="#A259FF"/>
<path d="M16.9636 16.8017C16.9636 14.4401 18.8803 12.5234 21.2418 12.5234H25.5201V21.0799H21.2418C18.8803 21.0799 16.9636 19.1632 16.9636 16.8017Z" fill="#F24E1E"/>
<path d="M25.5201 12.5235H29.7983C32.1599 12.5235 34.0765 14.4401 34.0765 16.8017C34.0765 19.1633 32.1599 21.0799 29.7983 21.0799H25.5201V12.5235Z" fill="#FF7262"/>
<path d="M34.0765 25.3581C34.0765 27.7197 32.1599 29.6363 29.7983 29.6363C27.4367 29.6363 25.5201 27.7197 25.5201 25.3581C25.5201 22.9965 27.4367 21.0799 29.7983 21.0799C32.1599 21.0799 34.0765 22.9965 34.0765 25.3581Z" fill="#1ABCFE"/>
</g>
<defs>
<clipPath id="clip0_29_147">
<rect width="17.1129" height="25.6693" fill="white" transform="translate(16.9636 12.5234)"/>
</clipPath>
</defs>
</svg>
