<svg width="51" height="51" viewBox="0 0 51 51" fill="none" xmlns="http://www.w3.org/2000/svg">
<rect x="0.64064" width="50.0938" height="50.0938" rx="25.0469" fill="#EEEEEE"/>
<g clip-path="url(#clip0_29_156)">
<path d="M37.2162 10.8536H13.3238C12.3133 10.8536 11.4942 11.6728 11.4942 12.6832V36.5756C11.4942 37.5861 12.3133 38.4052 13.3238 38.4052H37.2162C38.2266 38.4052 39.0458 37.5861 39.0458 36.5756V12.6832C39.0458 11.6728 38.2266 10.8536 37.2162 10.8536Z" fill="#FFD02F"/>
<path d="M30.2684 14.5272H27.3272L29.9382 18.5746L24.4182 14.5272H21.477L24.0879 19.8303L18.568 14.5272H15.6269L18.195 21.3725L15.6269 34.7317H18.568L24.0879 20.4076L21.477 34.7317H24.4182L29.9382 19.1519L27.3272 34.7317H30.2684L35.8311 17.6182L30.2684 14.5272Z" fill="#050038"/>
</g>
<defs>
<clipPath id="clip0_29_156">
<rect width="27.5516" height="27.6054" fill="white" transform="translate(11.4942 10.8536)"/>
</clipPath>
</defs>
</svg>
