<svg width="145" height="65" viewBox="0 0 145 65" fill="none" xmlns="http://www.w3.org/2000/svg">
<path d="M127.071 49.071L131.314 53.314M118.188 35.239L118.965 38.136M116.136 40.965L113.238 40.188M124.95 37.05L122.828 39.172M117.171 44.828L115.051 46.95M120 42L125 54L126.774 48.774L132 47L120 42Z" stroke="#E6DEDC" stroke-width="2" stroke-linecap="round" stroke-linejoin="round"/>
<path d="M11.9817 13.312V12.304H14.7777C15.2417 12.304 15.6137 12.164 15.8937 11.884C16.1817 11.604 16.3257 11.236 16.3257 10.78C16.3257 10.308 16.1817 9.936 15.8937 9.664C15.6137 9.392 15.2417 9.256 14.7777 9.256H12.1737V16H11.0217V8.212H14.7297C15.1137 8.212 15.4697 8.268 15.7977 8.38C16.1337 8.484 16.4257 8.644 16.6737 8.86C16.9297 9.076 17.1257 9.344 17.2617 9.664C17.4057 9.984 17.4777 10.356 17.4777 10.78C17.4777 11.196 17.4057 11.564 17.2617 11.884C17.1257 12.204 16.9297 12.472 16.6737 12.688C16.4257 12.896 16.1337 13.052 15.7977 13.156C15.4697 13.26 15.1137 13.312 14.7297 13.312H11.9817ZM18.9793 16V8.212H22.9873C23.5473 8.212 24.0273 8.296 24.4273 8.464C24.8353 8.624 25.1473 8.872 25.3633 9.208C25.5793 9.536 25.6873 9.956 25.6873 10.468C25.6873 10.82 25.6273 11.12 25.5073 11.368C25.3953 11.608 25.2393 11.808 25.0393 11.968C24.8393 12.128 24.6033 12.252 24.3313 12.34C24.0593 12.428 23.7673 12.484 23.4553 12.508L23.3713 12.436C23.8433 12.452 24.2393 12.504 24.5593 12.592C24.8793 12.68 25.1233 12.84 25.2913 13.072C25.4673 13.296 25.5553 13.632 25.5553 14.08V16H24.3913V14.116C24.3913 13.804 24.3393 13.56 24.2353 13.384C24.1313 13.208 23.9513 13.084 23.6953 13.012C23.4393 12.94 23.0793 12.904 22.6153 12.904H20.1313V16H18.9793ZM20.1313 11.896H22.9873C23.4993 11.896 23.8833 11.768 24.1393 11.512C24.4033 11.256 24.5353 10.92 24.5353 10.504C24.5353 10.104 24.4033 9.796 24.1393 9.58C23.8833 9.364 23.4993 9.256 22.9873 9.256H20.1313V11.896ZM31.1979 16.132C30.3899 16.132 29.6699 15.968 29.0379 15.64C28.4139 15.312 27.9219 14.848 27.5619 14.248C27.2099 13.648 27.0339 12.936 27.0339 12.112C27.0339 11.28 27.2099 10.564 27.5619 9.964C27.9219 9.364 28.4139 8.9 29.0379 8.572C29.6699 8.244 30.3899 8.08 31.1979 8.08C32.0139 8.08 32.7339 8.244 33.3579 8.572C33.9819 8.9 34.4739 9.364 34.8339 9.964C35.1939 10.564 35.3739 11.28 35.3739 12.112C35.3739 12.936 35.1939 13.648 34.8339 14.248C34.4739 14.848 33.9819 15.312 33.3579 15.64C32.7339 15.968 32.0139 16.132 31.1979 16.132ZM31.1979 15.088C31.7739 15.088 32.2859 14.976 32.7339 14.752C33.1819 14.528 33.5379 14.196 33.8019 13.756C34.0659 13.316 34.1979 12.768 34.1979 12.112C34.1979 11.456 34.0659 10.908 33.8019 10.468C33.5379 10.028 33.1819 9.696 32.7339 9.472C32.2859 9.24 31.7739 9.124 31.1979 9.124C30.6379 9.124 30.1299 9.24 29.6739 9.472C29.2179 9.696 28.8579 10.028 28.5939 10.468C28.3299 10.908 28.1979 11.456 28.1979 12.112C28.1979 12.768 28.3299 13.316 28.5939 13.756C28.8579 14.196 29.2179 14.528 29.6739 14.752C30.1299 14.976 30.6379 15.088 31.1979 15.088ZM40.0524 8.212C40.8604 8.212 41.5364 8.316 42.0804 8.524C42.6324 8.724 43.0724 9.004 43.4004 9.364C43.7364 9.724 43.9764 10.136 44.1204 10.6C44.2644 11.064 44.3364 11.556 44.3364 12.076C44.3364 12.588 44.2564 13.08 44.0964 13.552C43.9444 14.024 43.6964 14.444 43.3524 14.812C43.0164 15.18 42.5764 15.472 42.0324 15.688C41.4884 15.896 40.8284 16 40.0524 16H36.9324V8.212H40.0524ZM38.0844 14.956H40.0404C40.6564 14.956 41.1644 14.876 41.5644 14.716C41.9644 14.548 42.2804 14.328 42.5124 14.056C42.7524 13.776 42.9204 13.464 43.0164 13.12C43.1204 12.776 43.1724 12.428 43.1724 12.076C43.1724 11.716 43.1204 11.368 43.0164 11.032C42.9204 10.696 42.7524 10.396 42.5124 10.132C42.2804 9.86 41.9644 9.648 41.5644 9.496C41.1644 9.336 40.6564 9.256 40.0404 9.256H38.0844V14.956ZM51.8732 12.868V8.212H53.0252V12.916C53.0252 13.38 52.9652 13.788 52.8452 14.14C52.7332 14.492 52.5692 14.796 52.3532 15.052C52.1372 15.308 51.8812 15.516 51.5852 15.676C51.2972 15.828 50.9732 15.94 50.6132 16.012C50.2612 16.092 49.8852 16.132 49.4852 16.132C49.0692 16.132 48.6812 16.092 48.3212 16.012C47.9612 15.94 47.6292 15.828 47.3252 15.676C47.0292 15.516 46.7732 15.308 46.5572 15.052C46.3492 14.796 46.1852 14.492 46.0652 14.14C45.9532 13.788 45.8972 13.38 45.8972 12.916V8.212H47.0492V12.868C47.0492 13.468 47.1572 13.928 47.3732 14.248C47.5972 14.568 47.8932 14.788 48.2612 14.908C48.6292 15.028 49.0372 15.088 49.4852 15.088C49.9172 15.088 50.3132 15.028 50.6732 14.908C51.0332 14.788 51.3212 14.568 51.5372 14.248C51.7612 13.928 51.8732 13.468 51.8732 12.868ZM62.3487 13.336C62.2767 13.92 62.0767 14.42 61.7487 14.836C61.4287 15.252 61.0087 15.572 60.4887 15.796C59.9687 16.02 59.3767 16.132 58.7127 16.132C58.1127 16.132 57.5607 16.04 57.0567 15.856C56.5607 15.672 56.1287 15.408 55.7607 15.064C55.3927 14.72 55.1047 14.3 54.8967 13.804C54.6887 13.3 54.5847 12.736 54.5847 12.112C54.5847 11.48 54.6887 10.916 54.8967 10.42C55.1047 9.924 55.3927 9.504 55.7607 9.16C56.1287 8.808 56.5607 8.54 57.0567 8.356C57.5607 8.172 58.1127 8.08 58.7127 8.08C59.3847 8.08 59.9807 8.196 60.5007 8.428C61.0207 8.652 61.4407 8.976 61.7607 9.4C62.0887 9.816 62.2887 10.316 62.3607 10.9H61.2567C61.1527 10.524 60.9807 10.204 60.7407 9.94C60.5007 9.676 60.2087 9.476 59.8647 9.34C59.5207 9.196 59.1367 9.124 58.7127 9.124C58.1687 9.124 57.6727 9.24 57.2247 9.472C56.7767 9.704 56.4167 10.04 56.1447 10.48C55.8807 10.92 55.7487 11.464 55.7487 12.112C55.7487 12.752 55.8807 13.296 56.1447 13.744C56.4167 14.184 56.7767 14.52 57.2247 14.752C57.6727 14.976 58.1687 15.088 58.7127 15.088C59.1367 15.088 59.5167 15.02 59.8527 14.884C60.1967 14.748 60.4887 14.548 60.7287 14.284C60.9687 14.02 61.1447 13.704 61.2567 13.336H62.3487ZM62.9423 8.212H69.7703V9.244H62.9423V8.212ZM65.7743 9.124H66.9383V16H65.7743V9.124ZM76.6735 8.212C77.4815 8.212 78.1575 8.316 78.7015 8.524C79.2535 8.724 79.6935 9.004 80.0215 9.364C80.3575 9.724 80.5975 10.136 80.7415 10.6C80.8855 11.064 80.9575 11.556 80.9575 12.076C80.9575 12.588 80.8775 13.08 80.7175 13.552C80.5655 14.024 80.3175 14.444 79.9735 14.812C79.6375 15.18 79.1975 15.472 78.6535 15.688C78.1095 15.896 77.4495 16 76.6735 16H73.5535V8.212H76.6735ZM74.7055 14.956H76.6615C77.2775 14.956 77.7855 14.876 78.1855 14.716C78.5855 14.548 78.9015 14.328 79.1335 14.056C79.3735 13.776 79.5415 13.464 79.6375 13.12C79.7415 12.776 79.7935 12.428 79.7935 12.076C79.7935 11.716 79.7415 11.368 79.6375 11.032C79.5415 10.696 79.3735 10.396 79.1335 10.132C78.9015 9.86 78.5855 9.648 78.1855 9.496C77.7855 9.336 77.2775 9.256 76.6615 9.256H74.7055V14.956ZM83.6703 12.628V14.968H88.6863V16H82.5183V8.212H88.6743V9.244H83.6703V11.62H87.7623V12.628H83.6703ZM89.8302 13.444H90.9342C90.9582 13.756 91.0622 14.04 91.2462 14.296C91.4382 14.544 91.6942 14.74 92.0142 14.884C92.3422 15.028 92.7222 15.1 93.1542 15.1C93.5302 15.1 93.8422 15.048 94.0902 14.944C94.3382 14.84 94.5222 14.7 94.6422 14.524C94.7702 14.34 94.8342 14.124 94.8342 13.876C94.8342 13.628 94.7662 13.432 94.6302 13.288C94.4942 13.136 94.2902 13.012 94.0182 12.916C93.7462 12.812 93.4102 12.712 93.0102 12.616C92.6582 12.528 92.3102 12.424 91.9662 12.304C91.6302 12.176 91.3182 12.02 91.0302 11.836C90.7502 11.652 90.5222 11.432 90.3462 11.176C90.1782 10.912 90.0942 10.596 90.0942 10.228C90.0942 9.836 90.2022 9.48 90.4182 9.16C90.6342 8.832 90.9502 8.572 91.3662 8.38C91.7902 8.18 92.3022 8.08 92.9022 8.08C93.8302 8.08 94.5302 8.312 95.0022 8.776C95.4822 9.24 95.7142 9.86 95.6982 10.636H94.6182C94.5942 10.092 94.4222 9.704 94.1022 9.472C93.7822 9.232 93.3662 9.112 92.8542 9.112C92.4142 9.112 92.0382 9.204 91.7262 9.388C91.4142 9.564 91.2582 9.844 91.2582 10.228C91.2582 10.396 91.2942 10.544 91.3662 10.672C91.4382 10.792 91.5582 10.904 91.7262 11.008C91.8942 11.112 92.1182 11.212 92.3982 11.308C92.6862 11.404 93.0422 11.508 93.4662 11.62C93.7862 11.692 94.0942 11.784 94.3902 11.896C94.6942 12.008 94.9662 12.148 95.2062 12.316C95.4462 12.484 95.6342 12.7 95.7702 12.964C95.9142 13.228 95.9862 13.552 95.9862 13.936C95.9862 14.344 95.8862 14.716 95.6862 15.052C95.4862 15.38 95.1742 15.644 94.7502 15.844C94.3342 16.036 93.7942 16.132 93.1302 16.132C92.6022 16.132 92.1422 16.064 91.7502 15.928C91.3662 15.792 91.0422 15.616 90.7782 15.4C90.5222 15.184 90.3182 14.952 90.1662 14.704C90.0222 14.456 89.9222 14.22 89.8662 13.996C89.8182 13.772 89.8062 13.588 89.8302 13.444ZM97.6528 8.212H98.8048V16H97.6528V8.212ZM104.612 16.132C103.996 16.132 103.44 16.04 102.944 15.856C102.456 15.672 102.036 15.408 101.684 15.064C101.332 14.72 101.064 14.304 100.88 13.816C100.696 13.32 100.604 12.772 100.604 12.172C100.604 11.556 100.704 11 100.904 10.504C101.104 10 101.388 9.568 101.756 9.208C102.124 8.84 102.56 8.56 103.064 8.368C103.568 8.176 104.124 8.08 104.732 8.08C105.412 8.08 106.008 8.196 106.52 8.428C107.04 8.66 107.456 8.988 107.768 9.412C108.08 9.828 108.264 10.324 108.32 10.9H107.276C107.172 10.532 107.004 10.216 106.772 9.952C106.54 9.688 106.252 9.484 105.908 9.34C105.564 9.196 105.172 9.124 104.732 9.124C104.132 9.124 103.612 9.256 103.172 9.52C102.732 9.776 102.388 10.136 102.14 10.6C101.892 11.056 101.768 11.58 101.768 12.172C101.768 12.756 101.876 13.268 102.092 13.708C102.316 14.14 102.64 14.48 103.064 14.728C103.496 14.968 104.016 15.088 104.624 15.088C105.096 15.088 105.508 15.008 105.86 14.848C106.22 14.68 106.512 14.448 106.736 14.152C106.968 13.848 107.128 13.484 107.216 13.06L107.816 12.988C107.696 14.02 107.352 14.804 106.784 15.34C106.216 15.868 105.492 16.132 104.612 16.132ZM107.552 16C107.552 15.744 107.56 15.452 107.576 15.124C107.6 14.788 107.624 14.452 107.648 14.116C107.68 13.772 107.708 13.464 107.732 13.192H104.816V12.256H108.62V16H107.552ZM116.891 14.728L116.555 14.848V8.212H117.719V16H116.555L111.119 9.508L111.455 9.388V16H110.303V8.212H111.455L116.891 14.728ZM120.772 12.628V14.968H125.788V16H119.62V8.212H125.776V9.244H120.772V11.62H124.864V12.628H120.772ZM127.46 16V8.212H131.468C132.028 8.212 132.508 8.296 132.908 8.464C133.316 8.624 133.628 8.872 133.844 9.208C134.06 9.536 134.168 9.956 134.168 10.468C134.168 10.82 134.108 11.12 133.988 11.368C133.876 11.608 133.72 11.808 133.52 11.968C133.32 12.128 133.084 12.252 132.812 12.34C132.54 12.428 132.248 12.484 131.936 12.508L131.852 12.436C132.324 12.452 132.72 12.504 133.04 12.592C133.36 12.68 133.604 12.84 133.772 13.072C133.948 13.296 134.036 13.632 134.036 14.08V16H132.872V14.116C132.872 13.804 132.82 13.56 132.716 13.384C132.612 13.208 132.432 13.084 132.176 13.012C131.92 12.94 131.56 12.904 131.096 12.904H128.612V16H127.46ZM128.612 11.896H131.468C131.98 11.896 132.364 11.768 132.62 11.512C132.884 11.256 133.016 10.92 133.016 10.504C133.016 10.104 132.884 9.796 132.62 9.58C132.364 9.364 131.98 9.256 131.468 9.256H128.612V11.896Z" fill="white"/>
<rect x="0.5" y="0.5" width="144" height="23" rx="11.5" stroke="url(#paint0_linear_25_39)"/>
<defs>
<linearGradient id="paint0_linear_25_39" x1="72.5" y1="5.90196e-07" x2="83.3455" y2="47.7123" gradientUnits="userSpaceOnUse">
<stop stop-color="#044945"/>
<stop offset="1" stop-color="#541DBB"/>
</linearGradient>
</defs>
</svg>
