<svg width="51" height="51" viewBox="0 0 51 51" fill="none" xmlns="http://www.w3.org/2000/svg">
<rect x="0.848969" width="50.0938" height="50.0938" rx="25.0469" fill="#EEEEEE"/>
<path d="M14.8283 14.0774H37.2861V35.9226H14.8283V14.0774Z" fill="#0C0824"/>
<path d="M14.8283 14.0774H37.2861V35.9226H14.8283V14.0774ZM13.8072 36.9437H38.3072V13.0562H13.8072V36.9437ZM30.3246 22.8562C29.5178 22.8562 29.2422 23.2649 29.2422 23.6017C29.2422 23.9692 29.426 24.2247 30.5083 24.7856C32.1113 25.5617 32.6083 26.3064 32.6083 27.3992C32.6083 29.0329 31.3632 29.9105 29.6788 29.9105C28.956 29.9373 28.2375 29.7871 27.5858 29.473C27.5141 29.4424 27.5045 29.3916 27.5045 29.3094V27.807C27.5045 27.7046 27.5552 27.674 27.627 27.7256C28.2389 28.1191 28.9513 28.3281 29.6788 28.3276C30.4856 28.3276 30.8225 27.9907 30.8225 27.5314C30.8225 27.1639 30.588 26.8375 29.5563 26.3064C28.1065 25.6125 27.5045 24.9064 27.5045 23.7339C27.5045 22.417 28.5352 21.325 30.322 21.325C30.9439 21.2983 31.565 21.3955 32.149 21.6111C32.1826 21.6329 32.2098 21.6633 32.2278 21.6992C32.2458 21.735 32.2539 21.775 32.2513 21.815V23.215C32.2513 23.2964 32.2006 23.348 32.0982 23.3174C31.5585 23.0067 30.9447 22.8479 30.322 22.858L30.3246 22.8562ZM21.5448 24.0707C21.7793 24.0909 21.9631 24.0909 22.3717 24.0909C23.5661 24.0909 24.6887 23.6726 24.6887 22.0495C24.6887 20.7527 23.882 20.1 22.5248 20.1C22.1162 20.1 21.7286 20.1201 21.5448 20.1306V24.0707ZM19.7275 18.6457C19.7275 18.574 19.8701 18.5232 19.9523 18.5232C20.8298 18.4874 21.7079 18.4705 22.5861 18.4725C25.4141 18.4725 26.5166 20.0239 26.5166 22.0049C26.5166 24.5975 24.638 25.7105 22.3315 25.7105C21.9438 25.7105 21.8108 25.6904 21.5352 25.6904V29.6104C21.5352 29.6917 21.5046 29.7329 21.4127 29.7329H19.8508C19.7695 29.7329 19.7283 29.7022 19.7283 29.6104V18.6501L19.7275 18.6457Z" fill="#31C5F0"/>
</svg>
