<svg width="143" height="65" viewBox="0 0 143 65" fill="none" xmlns="http://www.w3.org/2000/svg">
<path d="M127.071 49.071L131.314 53.314M118.188 35.239L118.965 38.136M116.136 40.965L113.238 40.188M124.95 37.05L122.828 39.172M117.171 44.828L115.051 46.95M120 42L125 54L126.774 48.774L132 47L120 42Z" stroke="#E6DEDC" stroke-width="2" stroke-linecap="round" stroke-linejoin="round"/>
<path d="M21.0998 12.868V8.212H22.2518V12.916C22.2518 13.38 22.1918 13.788 22.0718 14.14C21.9598 14.492 21.7958 14.796 21.5798 15.052C21.3638 15.308 21.1078 15.516 20.8118 15.676C20.5238 15.828 20.1998 15.94 19.8398 16.012C19.4878 16.092 19.1118 16.132 18.7118 16.132C18.2958 16.132 17.9078 16.092 17.5478 16.012C17.1878 15.94 16.8558 15.828 16.5518 15.676C16.2558 15.516 15.9998 15.308 15.7838 15.052C15.5758 14.796 15.4118 14.492 15.2918 14.14C15.1798 13.788 15.1238 13.38 15.1238 12.916V8.212H16.2758V12.868C16.2758 13.468 16.3838 13.928 16.5998 14.248C16.8238 14.568 17.1198 14.788 17.4878 14.908C17.8558 15.028 18.2638 15.088 18.7118 15.088C19.1438 15.088 19.5398 15.028 19.8998 14.908C20.2598 14.788 20.5478 14.568 20.7638 14.248C20.9878 13.928 21.0998 13.468 21.0998 12.868ZM29.2378 8.212H30.5818L27.4498 12.4L27.4258 12.448L24.9418 16H23.5978L26.7898 11.572L26.8138 11.548L29.2378 8.212ZM25.0618 8.212L27.4018 11.548L27.4138 11.572L30.5938 16H29.1298L26.7418 12.412L26.7058 12.388L23.7178 8.212H25.0618ZM34.6707 16V8.212H38.6787C39.2387 8.212 39.7187 8.296 40.1187 8.464C40.5267 8.624 40.8387 8.872 41.0547 9.208C41.2707 9.536 41.3787 9.956 41.3787 10.468C41.3787 10.82 41.3187 11.12 41.1987 11.368C41.0867 11.608 40.9307 11.808 40.7307 11.968C40.5307 12.128 40.2947 12.252 40.0227 12.34C39.7507 12.428 39.4587 12.484 39.1467 12.508L39.0627 12.436C39.5347 12.452 39.9307 12.504 40.2507 12.592C40.5707 12.68 40.8147 12.84 40.9827 13.072C41.1587 13.296 41.2467 13.632 41.2467 14.08V16H40.0827V14.116C40.0827 13.804 40.0307 13.56 39.9267 13.384C39.8227 13.208 39.6427 13.084 39.3867 13.012C39.1307 12.94 38.7707 12.904 38.3067 12.904H35.8227V16H34.6707ZM35.8227 11.896H38.6787C39.1907 11.896 39.5747 11.768 39.8307 11.512C40.0947 11.256 40.2267 10.92 40.2267 10.504C40.2267 10.104 40.0947 9.796 39.8307 9.58C39.5747 9.364 39.1907 9.256 38.6787 9.256H35.8227V11.896ZM44.2133 12.628V14.968H49.2293V16H43.0613V8.212H49.2173V9.244H44.2133V11.62H48.3053V12.628H44.2133ZM50.3731 13.444H51.4771C51.5011 13.756 51.6051 14.04 51.7891 14.296C51.9811 14.544 52.2371 14.74 52.5571 14.884C52.8851 15.028 53.2651 15.1 53.6971 15.1C54.0731 15.1 54.3851 15.048 54.6331 14.944C54.8811 14.84 55.0651 14.7 55.1851 14.524C55.3131 14.34 55.3771 14.124 55.3771 13.876C55.3771 13.628 55.3091 13.432 55.1731 13.288C55.0371 13.136 54.8331 13.012 54.5611 12.916C54.2891 12.812 53.9531 12.712 53.5531 12.616C53.2011 12.528 52.8531 12.424 52.5091 12.304C52.1731 12.176 51.8611 12.02 51.5731 11.836C51.2931 11.652 51.0651 11.432 50.8891 11.176C50.7211 10.912 50.6371 10.596 50.6371 10.228C50.6371 9.836 50.7451 9.48 50.9611 9.16C51.1771 8.832 51.4931 8.572 51.9091 8.38C52.3331 8.18 52.8451 8.08 53.4451 8.08C54.3731 8.08 55.0731 8.312 55.5451 8.776C56.0251 9.24 56.2571 9.86 56.2411 10.636H55.1611C55.1371 10.092 54.9651 9.704 54.6451 9.472C54.3251 9.232 53.9091 9.112 53.3971 9.112C52.9571 9.112 52.5811 9.204 52.2691 9.388C51.9571 9.564 51.8011 9.844 51.8011 10.228C51.8011 10.396 51.8371 10.544 51.9091 10.672C51.9811 10.792 52.1011 10.904 52.2691 11.008C52.4371 11.112 52.6611 11.212 52.9411 11.308C53.2291 11.404 53.5851 11.508 54.0091 11.62C54.3291 11.692 54.6371 11.784 54.9331 11.896C55.2371 12.008 55.5091 12.148 55.7491 12.316C55.9891 12.484 56.1771 12.7 56.3131 12.964C56.4571 13.228 56.5291 13.552 56.5291 13.936C56.5291 14.344 56.4291 14.716 56.2291 15.052C56.0291 15.38 55.7171 15.644 55.2931 15.844C54.8771 16.036 54.3371 16.132 53.6731 16.132C53.1451 16.132 52.6851 16.064 52.2931 15.928C51.9091 15.792 51.5851 15.616 51.3211 15.4C51.0651 15.184 50.8611 14.952 50.7091 14.704C50.5651 14.456 50.4651 14.22 50.4091 13.996C50.3611 13.772 50.3491 13.588 50.3731 13.444ZM59.1078 12.628V14.968H64.1238V16H57.9558V8.212H64.1118V9.244H59.1078V11.62H63.1998V12.628H59.1078ZM66.7677 14.068V13.036H70.9437V14.068H66.7677ZM65.0757 16L68.2557 8.212H69.4797L72.6837 16H71.4357L68.6517 8.968H69.0837L66.3117 16H65.0757ZM73.8582 16V8.212H77.8662C78.4262 8.212 78.9062 8.296 79.3062 8.464C79.7142 8.624 80.0262 8.872 80.2422 9.208C80.4582 9.536 80.5662 9.956 80.5662 10.468C80.5662 10.82 80.5062 11.12 80.3862 11.368C80.2742 11.608 80.1182 11.808 79.9182 11.968C79.7182 12.128 79.4822 12.252 79.2102 12.34C78.9382 12.428 78.6462 12.484 78.3342 12.508L78.2502 12.436C78.7222 12.452 79.1182 12.504 79.4382 12.592C79.7582 12.68 80.0022 12.84 80.1702 13.072C80.3462 13.296 80.4342 13.632 80.4342 14.08V16H79.2702V14.116C79.2702 13.804 79.2182 13.56 79.1142 13.384C79.0102 13.208 78.8302 13.084 78.5742 13.012C78.3182 12.94 77.9582 12.904 77.4942 12.904H75.0102V16H73.8582ZM75.0102 11.896H77.8662C78.3782 11.896 78.7622 11.768 79.0182 11.512C79.2822 11.256 79.4142 10.92 79.4142 10.504C79.4142 10.104 79.2822 9.796 79.0182 9.58C78.7622 9.364 78.3782 9.256 77.8662 9.256H75.0102V11.896ZM89.6768 13.336C89.6048 13.92 89.4048 14.42 89.0768 14.836C88.7568 15.252 88.3368 15.572 87.8168 15.796C87.2968 16.02 86.7048 16.132 86.0408 16.132C85.4408 16.132 84.8888 16.04 84.3848 15.856C83.8888 15.672 83.4568 15.408 83.0888 15.064C82.7208 14.72 82.4328 14.3 82.2248 13.804C82.0168 13.3 81.9128 12.736 81.9128 12.112C81.9128 11.48 82.0168 10.916 82.2248 10.42C82.4328 9.924 82.7208 9.504 83.0888 9.16C83.4568 8.808 83.8888 8.54 84.3848 8.356C84.8888 8.172 85.4408 8.08 86.0408 8.08C86.7128 8.08 87.3088 8.196 87.8288 8.428C88.3488 8.652 88.7688 8.976 89.0888 9.4C89.4168 9.816 89.6168 10.316 89.6888 10.9H88.5848C88.4808 10.524 88.3088 10.204 88.0688 9.94C87.8288 9.676 87.5368 9.476 87.1928 9.34C86.8488 9.196 86.4648 9.124 86.0408 9.124C85.4968 9.124 85.0008 9.24 84.5528 9.472C84.1048 9.704 83.7448 10.04 83.4728 10.48C83.2088 10.92 83.0768 11.464 83.0768 12.112C83.0768 12.752 83.2088 13.296 83.4728 13.744C83.7448 14.184 84.1048 14.52 84.5528 14.752C85.0008 14.976 85.4968 15.088 86.0408 15.088C86.4648 15.088 86.8448 15.02 87.1808 14.884C87.5248 14.748 87.8168 14.548 88.0568 14.284C88.2968 14.02 88.4728 13.704 88.5848 13.336H89.6768ZM92.2928 11.584H97.6088V12.628H92.2928V11.584ZM97.4768 8.212H98.6408V16H97.4768V8.212ZM91.2488 8.212H92.4008V16H91.2488V8.212ZM101.694 12.628V14.968H106.71V16H100.542V8.212H106.698V9.244H101.694V11.62H105.786V12.628H101.694ZM108.382 16V8.212H112.39C112.95 8.212 113.43 8.296 113.83 8.464C114.238 8.624 114.55 8.872 114.766 9.208C114.982 9.536 115.09 9.956 115.09 10.468C115.09 10.82 115.03 11.12 114.91 11.368C114.798 11.608 114.642 11.808 114.442 11.968C114.242 12.128 114.006 12.252 113.734 12.34C113.462 12.428 113.17 12.484 112.858 12.508L112.774 12.436C113.246 12.452 113.642 12.504 113.962 12.592C114.282 12.68 114.526 12.84 114.694 13.072C114.87 13.296 114.958 13.632 114.958 14.08V16H113.794V14.116C113.794 13.804 113.742 13.56 113.638 13.384C113.534 13.208 113.354 13.084 113.098 13.012C112.842 12.94 112.482 12.904 112.018 12.904H109.534V16H108.382ZM109.534 11.896H112.39C112.902 11.896 113.286 11.768 113.542 11.512C113.806 11.256 113.938 10.92 113.938 10.504C113.938 10.104 113.806 9.796 113.542 9.58C113.286 9.364 112.902 9.256 112.39 9.256H109.534V11.896Z" fill="#E6DEDC"/>
<rect x="0.5" y="0.5" width="129" height="23" rx="11.5" stroke="url(#paint0_linear_25_34)"/>
<defs>
<linearGradient id="paint0_linear_25_34" x1="65" y1="5.90196e-07" x2="76.9535" y2="47.1469" gradientUnits="userSpaceOnUse">
<stop stop-color="#044945"/>
<stop offset="1" stop-color="#541DBB"/>
</linearGradient>
</defs>
</svg>
