<svg width="143" height="65" viewBox="0 0 143 65" fill="none" xmlns="http://www.w3.org/2000/svg">
<path d="M127.071 49.071L131.314 53.314M118.188 35.239L118.965 38.136M116.136 40.965L113.238 40.188M124.95 37.05L122.828 39.172M117.171 44.828L115.051 46.95M120 42L125 54L126.774 48.774L132 47L120 42Z" stroke="#E6DEDC" stroke-width="2" stroke-linecap="round" stroke-linejoin="round"/>
<path d="M23.4084 12.868V8.212H24.5604V12.916C24.5604 13.38 24.5004 13.788 24.3804 14.14C24.2684 14.492 24.1044 14.796 23.8884 15.052C23.6724 15.308 23.4164 15.516 23.1204 15.676C22.8324 15.828 22.5084 15.94 22.1484 16.012C21.7964 16.092 21.4204 16.132 21.0204 16.132C20.6044 16.132 20.2164 16.092 19.8564 16.012C19.4964 15.94 19.1644 15.828 18.8604 15.676C18.5644 15.516 18.3084 15.308 18.0924 15.052C17.8844 14.796 17.7204 14.492 17.6004 14.14C17.4884 13.788 17.4324 13.38 17.4324 12.916V8.212H18.5844V12.868C18.5844 13.468 18.6924 13.928 18.9084 14.248C19.1324 14.568 19.4284 14.788 19.7964 14.908C20.1644 15.028 20.5724 15.088 21.0204 15.088C21.4524 15.088 21.8484 15.028 22.2084 14.908C22.5684 14.788 22.8564 14.568 23.0724 14.248C23.2964 13.928 23.4084 13.468 23.4084 12.868ZM26.6958 8.212H27.8478V16H26.6958V8.212ZM38.5959 12.868V8.212H39.7479V12.916C39.7479 13.38 39.6879 13.788 39.5679 14.14C39.4559 14.492 39.2919 14.796 39.0759 15.052C38.8599 15.308 38.6039 15.516 38.3079 15.676C38.0199 15.828 37.6959 15.94 37.3359 16.012C36.9839 16.092 36.6079 16.132 36.2079 16.132C35.7919 16.132 35.4039 16.092 35.0439 16.012C34.6839 15.94 34.3519 15.828 34.0479 15.676C33.7519 15.516 33.4959 15.308 33.2799 15.052C33.0719 14.796 32.9079 14.492 32.7879 14.14C32.6759 13.788 32.6199 13.38 32.6199 12.916V8.212H33.7719V12.868C33.7719 13.468 33.8799 13.928 34.0959 14.248C34.3199 14.568 34.6159 14.788 34.9839 14.908C35.3519 15.028 35.7599 15.088 36.2079 15.088C36.6399 15.088 37.0359 15.028 37.3959 14.908C37.7559 14.788 38.0439 14.568 38.2599 14.248C38.4839 13.928 38.5959 13.468 38.5959 12.868ZM46.7338 8.212H48.0778L44.9458 12.4L44.9218 12.448L42.4378 16H41.0938L44.2858 11.572L44.3098 11.548L46.7338 8.212ZM42.5578 8.212L44.8978 11.548L44.9098 11.572L48.0898 16H46.6258L44.2378 12.412L44.2018 12.388L41.2138 8.212H42.5578ZM55.2868 8.212C56.0948 8.212 56.7708 8.316 57.3148 8.524C57.8668 8.724 58.3068 9.004 58.6348 9.364C58.9708 9.724 59.2108 10.136 59.3548 10.6C59.4988 11.064 59.5708 11.556 59.5708 12.076C59.5708 12.588 59.4908 13.08 59.3308 13.552C59.1788 14.024 58.9308 14.444 58.5868 14.812C58.2508 15.18 57.8108 15.472 57.2668 15.688C56.7228 15.896 56.0628 16 55.2868 16H52.1668V8.212H55.2868ZM53.3188 14.956H55.2748C55.8908 14.956 56.3988 14.876 56.7988 14.716C57.1988 14.548 57.5148 14.328 57.7468 14.056C57.9868 13.776 58.1548 13.464 58.2508 13.12C58.3548 12.776 58.4068 12.428 58.4068 12.076C58.4068 11.716 58.3548 11.368 58.2508 11.032C58.1548 10.696 57.9868 10.396 57.7468 10.132C57.5148 9.86 57.1988 9.648 56.7988 9.496C56.3988 9.336 55.8908 9.256 55.2748 9.256H53.3188V14.956ZM62.2836 12.628V14.968H67.2996V16H61.1316V8.212H67.2876V9.244H62.2836V11.62H66.3756V12.628H62.2836ZM68.4434 13.444H69.5474C69.5714 13.756 69.6754 14.04 69.8594 14.296C70.0514 14.544 70.3074 14.74 70.6274 14.884C70.9554 15.028 71.3354 15.1 71.7674 15.1C72.1434 15.1 72.4554 15.048 72.7034 14.944C72.9514 14.84 73.1354 14.7 73.2554 14.524C73.3834 14.34 73.4474 14.124 73.4474 13.876C73.4474 13.628 73.3794 13.432 73.2434 13.288C73.1074 13.136 72.9034 13.012 72.6314 12.916C72.3594 12.812 72.0234 12.712 71.6234 12.616C71.2714 12.528 70.9234 12.424 70.5794 12.304C70.2434 12.176 69.9314 12.02 69.6434 11.836C69.3634 11.652 69.1354 11.432 68.9594 11.176C68.7914 10.912 68.7074 10.596 68.7074 10.228C68.7074 9.836 68.8154 9.48 69.0314 9.16C69.2474 8.832 69.5634 8.572 69.9794 8.38C70.4034 8.18 70.9154 8.08 71.5154 8.08C72.4434 8.08 73.1434 8.312 73.6154 8.776C74.0954 9.24 74.3274 9.86 74.3114 10.636H73.2314C73.2074 10.092 73.0354 9.704 72.7154 9.472C72.3954 9.232 71.9794 9.112 71.4674 9.112C71.0274 9.112 70.6514 9.204 70.3394 9.388C70.0274 9.564 69.8714 9.844 69.8714 10.228C69.8714 10.396 69.9074 10.544 69.9794 10.672C70.0514 10.792 70.1714 10.904 70.3394 11.008C70.5074 11.112 70.7314 11.212 71.0114 11.308C71.2994 11.404 71.6554 11.508 72.0794 11.62C72.3994 11.692 72.7074 11.784 73.0034 11.896C73.3074 12.008 73.5794 12.148 73.8194 12.316C74.0594 12.484 74.2474 12.7 74.3834 12.964C74.5274 13.228 74.5994 13.552 74.5994 13.936C74.5994 14.344 74.4994 14.716 74.2994 15.052C74.0994 15.38 73.7874 15.644 73.3634 15.844C72.9474 16.036 72.4074 16.132 71.7434 16.132C71.2154 16.132 70.7554 16.064 70.3634 15.928C69.9794 15.792 69.6554 15.616 69.3914 15.4C69.1354 15.184 68.9314 14.952 68.7794 14.704C68.6354 14.456 68.5354 14.22 68.4794 13.996C68.4314 13.772 68.4194 13.588 68.4434 13.444ZM76.2661 8.212H77.4181V16H76.2661V8.212ZM83.2255 16.132C82.6095 16.132 82.0535 16.04 81.5575 15.856C81.0695 15.672 80.6495 15.408 80.2975 15.064C79.9455 14.72 79.6775 14.304 79.4935 13.816C79.3095 13.32 79.2175 12.772 79.2175 12.172C79.2175 11.556 79.3175 11 79.5175 10.504C79.7175 10 80.0015 9.568 80.3695 9.208C80.7375 8.84 81.1735 8.56 81.6775 8.368C82.1815 8.176 82.7375 8.08 83.3455 8.08C84.0255 8.08 84.6215 8.196 85.1335 8.428C85.6535 8.66 86.0695 8.988 86.3815 9.412C86.6935 9.828 86.8775 10.324 86.9335 10.9H85.8895C85.7855 10.532 85.6175 10.216 85.3855 9.952C85.1535 9.688 84.8655 9.484 84.5215 9.34C84.1775 9.196 83.7855 9.124 83.3455 9.124C82.7455 9.124 82.2255 9.256 81.7855 9.52C81.3455 9.776 81.0015 10.136 80.7535 10.6C80.5055 11.056 80.3815 11.58 80.3815 12.172C80.3815 12.756 80.4895 13.268 80.7055 13.708C80.9295 14.14 81.2535 14.48 81.6775 14.728C82.1095 14.968 82.6295 15.088 83.2375 15.088C83.7095 15.088 84.1215 15.008 84.4735 14.848C84.8335 14.68 85.1255 14.448 85.3495 14.152C85.5815 13.848 85.7415 13.484 85.8295 13.06L86.4295 12.988C86.3095 14.02 85.9655 14.804 85.3975 15.34C84.8295 15.868 84.1055 16.132 83.2255 16.132ZM86.1655 16C86.1655 15.744 86.1735 15.452 86.1895 15.124C86.2135 14.788 86.2375 14.452 86.2615 14.116C86.2935 13.772 86.3215 13.464 86.3455 13.192H83.4295V12.256H87.2335V16H86.1655ZM95.5048 14.728L95.1688 14.848V8.212H96.3328V16H95.1688L89.7327 9.508L90.0688 9.388V16H88.9168V8.212H90.0688L95.5048 14.728ZM99.3852 12.628V14.968H104.401V16H98.2332V8.212H104.389V9.244H99.3852V11.62H103.477V12.628H99.3852ZM106.073 16V8.212H110.081C110.641 8.212 111.121 8.296 111.521 8.464C111.929 8.624 112.241 8.872 112.457 9.208C112.673 9.536 112.781 9.956 112.781 10.468C112.781 10.82 112.721 11.12 112.601 11.368C112.489 11.608 112.333 11.808 112.133 11.968C111.933 12.128 111.697 12.252 111.425 12.34C111.153 12.428 110.861 12.484 110.549 12.508L110.465 12.436C110.937 12.452 111.333 12.504 111.653 12.592C111.973 12.68 112.217 12.84 112.385 13.072C112.561 13.296 112.649 13.632 112.649 14.08V16H111.485V14.116C111.485 13.804 111.433 13.56 111.329 13.384C111.225 13.208 111.045 13.084 110.789 13.012C110.533 12.94 110.173 12.904 109.709 12.904H107.225V16H106.073ZM107.225 11.896H110.081C110.593 11.896 110.977 11.768 111.233 11.512C111.497 11.256 111.629 10.92 111.629 10.504C111.629 10.104 111.497 9.796 111.233 9.58C110.977 9.364 110.593 9.256 110.081 9.256H107.225V11.896Z" fill="#E6DEDC"/>
<rect x="0.5" y="0.5" width="129" height="23" rx="11.5" stroke="url(#paint0_linear_25_28)"/>
<defs>
<linearGradient id="paint0_linear_25_28" x1="65" y1="5.90196e-07" x2="76.9535" y2="47.1469" gradientUnits="userSpaceOnUse">
<stop stop-color="#044945"/>
<stop offset="1" stop-color="#541DBB"/>
</linearGradient>
</defs>
</svg>
