<svg width="19" height="19" viewBox="0 0 19 19" fill="none" xmlns="http://www.w3.org/2000/svg">
<path d="M7.5 3.28687V5.28687H2.5V16.2869H13.5V11.2869H15.5V17.2869C15.5 17.5521 15.3946 17.8064 15.2071 17.994C15.0196 18.1815 14.7652 18.2869 14.5 18.2869H1.5C1.23478 18.2869 0.98043 18.1815 0.792893 17.994C0.605357 17.8064 0.5 17.5521 0.5 17.2869V4.28687C0.5 4.02165 0.605357 3.7673 0.792893 3.57976C0.98043 3.39222 1.23478 3.28687 1.5 3.28687H7.5ZM18.5 0.286865V8.28687H16.5V3.69987L8.707 11.4939L7.293 10.0799L15.085 2.28687H10.5V0.286865H18.5Z" fill="#E6DEDC"/>
</svg>
