<svg width="51" height="51" viewBox="0 0 51 51" fill="none" xmlns="http://www.w3.org/2000/svg">
<rect x="0.0572968" width="50.0938" height="50.0938" rx="25.0469" fill="#EEEEEE"/>
<g clip-path="url(#clip0_29_163)">
<path d="M34.0338 11H15.3307C12.7634 11 10.6822 13.0812 10.6822 15.6484V33.6516C10.6822 36.2188 12.7634 38.3 15.3307 38.3H34.0338C36.6011 38.3 38.6822 36.2188 38.6822 33.6516V15.6484C38.6822 13.0812 36.6011 11 34.0338 11Z" fill="#470137"/>
<path d="M25.4017 18.1794L21.9079 23.946L25.6458 30.0693C25.6699 30.1122 25.6766 30.1625 25.6646 30.2102C25.6588 30.2305 25.6464 30.2356 25.6272 30.2363L25.606 30.236L25.5802 30.2353C25.5662 30.2353 25.5506 30.236 25.5332 30.2388H22.8382L22.7852 30.238C22.64 30.2341 22.5353 30.2134 22.4715 30.1068C22.2222 29.621 21.9717 29.1358 21.7201 28.6512C21.4951 28.2189 21.2639 27.7898 21.0267 27.3641L20.9219 27.1767C20.6382 26.6724 20.3595 26.1652 20.0861 25.6553H20.0673C19.8147 26.1599 19.5549 26.6608 19.2878 27.1579C19.0184 27.6588 18.7522 28.1567 18.4894 28.6512C18.2264 29.146 17.9572 29.6376 17.6818 30.1256C17.6375 30.2252 17.5639 30.246 17.4614 30.2493L17.4188 30.25H14.8455L14.8343 30.2503L14.7976 30.2536C14.7771 30.2548 14.7649 30.2504 14.7609 30.2196C14.7539 30.1738 14.7639 30.127 14.7892 30.0881L18.4143 24.1337L14.883 18.1608C14.8455 18.1109 14.8393 18.0702 14.8642 18.0387C14.878 18.0227 14.8955 18.0101 14.915 18.0019C14.9346 17.9937 14.9558 17.9902 14.977 17.9917H17.6254C17.6831 17.9885 17.7409 17.9982 17.7945 18.0199C17.8393 18.0454 17.8779 18.0807 17.9071 18.1233C18.1325 18.6242 18.383 19.1251 18.6585 19.6259C18.9319 20.1234 19.2105 20.6181 19.4944 21.1097C19.7738 21.5938 20.0339 22.0888 20.2739 22.5936H20.2927C20.5386 22.0889 20.7922 21.588 21.0534 21.091C21.3099 20.6027 21.5729 20.111 21.8422 19.6165C22.1081 19.1282 22.3679 18.6367 22.6217 18.1421C22.6362 18.0957 22.662 18.0537 22.6969 18.0199C22.7433 17.9964 22.7954 17.9866 22.8471 17.9917H25.3077C25.3304 17.986 25.3542 17.9879 25.3757 17.997C25.3972 18.0061 25.4151 18.0219 25.4268 18.042C25.4385 18.0622 25.4434 18.0856 25.4407 18.1087C25.4379 18.1319 25.4278 18.1535 25.4117 18.1704L25.4018 18.1796L25.4017 18.1794ZM30.9219 30.4811L30.7924 30.4825C29.9278 30.4957 29.0712 30.3161 28.2847 29.9567C27.5521 29.6176 26.9397 29.0641 26.5285 28.3694C26.1138 27.6808 25.901 26.8226 25.8903 25.7953L25.8898 25.7116C25.8828 24.8495 26.1031 24.0008 26.5286 23.251C26.9544 22.5088 27.5752 21.8974 28.3237 21.4828L28.3881 21.4478C29.2018 20.997 30.1849 20.7716 31.337 20.7716L31.3874 20.7721L31.4449 20.774L31.5094 20.7768L31.5812 20.781L31.7017 20.7895L31.8382 20.8004L31.9381 20.8092V17.1088C31.9381 17.0213 31.9757 16.9773 32.0507 16.9773H34.4175C34.4328 16.9751 34.4484 16.9765 34.4631 16.9814C34.4777 16.9863 34.4911 16.9946 34.502 17.0055C34.5129 17.0164 34.5212 17.0297 34.5261 17.0444C34.5309 17.0591 34.5323 17.0747 34.5301 17.09V28.191C34.5301 28.3774 34.5374 28.5782 34.5518 28.793L34.5868 29.2803L34.6054 29.5621C34.6077 29.6012 34.5982 29.64 34.5781 29.6735C34.5579 29.7071 34.5282 29.7337 34.4926 29.75C33.882 30.0047 33.2461 30.1935 32.5955 30.3134C32.0432 30.4154 31.4834 30.4715 30.9219 30.4811ZM31.9381 28.1534V23.0256C31.8366 22.9981 31.7329 22.9792 31.6282 22.9692C31.5002 22.9564 31.3717 22.9501 31.2431 22.9504C30.7873 22.9459 30.3369 23.0489 29.9283 23.251C29.5303 23.4488 29.1906 23.7465 28.9422 24.115C28.6942 24.4777 28.5659 24.9513 28.5575 25.5358L28.5571 25.5989C28.5479 26.0084 28.6148 26.4159 28.7543 26.801C28.8678 27.1113 29.0473 27.3933 29.2804 27.6275C29.5034 27.843 29.7734 28.0037 30.0692 28.0971C30.3816 28.1982 30.7081 28.249 31.0365 28.2475C31.2117 28.2475 31.3745 28.2411 31.5248 28.2285C31.6448 28.2195 31.7637 28.1997 31.8801 28.1695L31.9381 28.1534Z" fill="#FF61F6"/>
</g>
<defs>
<clipPath id="clip0_29_163">
<rect width="28" height="27.3438" fill="white" transform="translate(10.6822 11)"/>
</clipPath>
</defs>
</svg>
